<?xml version="1.0" encoding="UTF-8"?>
<!-- Simplified multi-color Google G mark -->
<svg width="24" height="24" viewBox="0 0 24 24" xmlns="http://www.w3.org/2000/svg" role="img" aria-label="Google">
  <defs>
    <clipPath id="clip">
      <circle cx="12" cy="12" r="10" />
    </clipPath>
  </defs>
  <g clip-path="url(#clip)">
    <!-- Blue -->
    <path fill="#4285F4" d="M12 2a10 10 0 0 1 6.32 2.27l-2.56 2.56A6.5 6.5 0 0 0 12 5.5c-3.02 0-5.57 2.06-6.38 4.84l-2.8-2.17C4.12 4.78 7.77 2 12 2z"/>
    <!-- Green -->
    <path fill="#34A853" d="M5.62 10.34A6.5 6.5 0 0 0 5.5 12c0 .58.08 1.15.24 1.68l-2.9 2.26A10 10 0 0 1 2 12c0-1.54.35-3 .98-4.3l2.64 2.64z"/>
    <!-- Yellow -->
    <path fill="#FBBC05" d="M12 18.5c-2.57 0-4.77-1.46-5.88-3.6l-2.9 2.26C4.02 19.9 7.72 22 12 22c2.6 0 4.98-.92 6.82-2.46l-2.67-2.07A6.48 6.48 0 0 1 12 18.5z"/>
    <!-- Red (the G arm) -->
    <path fill="#EA4335" d="M22 12c0-.66-.06-1.3-.18-1.9H12v3.8h5.64c-.24 1.24-.94 2.28-1.98 2.97l2.67 2.07C20.36 17.5 22 15 22 12z"/>
  </g>
</svg>
